<?xml version="1.0" encoding="UTF-8"?>
<svg width="344px" height="48px" viewBox="0 0 344 48" version="1.1" xmlns="http://www.w3.org/2000/svg" xmlns:xlink="http://www.w3.org/1999/xlink">
    <!-- Generator: Sketch 57.1 (83088) - https://sketch.com -->
    <title>Light Button (large default)</title>
    <desc>Created with Sketch.</desc>
    <g id="Page-1" stroke="none" stroke-width="1" fill="none" fill-rule="evenodd">
        <g id="Doc-(for-zeplin)" transform="translate(-16.000000, -1587.000000)">
            <g id="Light-Button-(large-default)" transform="translate(16.000000, 1587.000000)">
                <path d="M0.5,0.5 L0.5,47.5 L343.5,47.5 L343.5,0.5 L0.5,0.5 Z" id="Button" stroke="#C7C7C7" fill="#FFFFFF"></path>
                <g id="Content" transform="translate(105.000000, 15.000000)">
                    <g id="logo-(large)" transform="translate(90.000000, 1.000000)">
                        <g id="Content/Branding/eBay">
                            <path d="M32.021694,12.3257054 C32.021694,12.9648847 32.0393309,13.5957722 32.0925767,14.1639785 L30.1427994,14.1639785 C30.0908277,13.6961183 30.0718497,13.2312797 30.0718497,12.780425 C29.0177293,14.1381892 27.7639705,14.5285412 26.0246283,14.5285412 C23.4448869,14.5285412 22.0636465,13.0998039 22.0636465,11.4470446 C22.0636465,9.05349495 23.9422729,8.20954771 27.203682,8.13126651 C28.0955836,8.10990432 29.0973298,8.10674215 29.9255912,8.10674215 L29.9254571,7.87288233 C29.9254571,6.2705069 28.9449019,5.61165184 27.2457288,5.61165184 C25.9843251,5.61165184 25.0546016,6.15863646 24.9588395,7.10384332 L22.7565803,7.10384332 C22.9896147,4.74711538 25.3526174,4.15101176 27.4302786,4.15101176 C29.9192876,4.15101176 32.021694,5.07900238 32.021694,7.83767687 L32.021694,12.3257054 Z M27.3475263,9.60385255 C25.4469712,9.66913373 24.2661069,10.0284964 24.2661069,11.3402336 C24.2661069,12.1895916 24.9121655,13.1102039 26.5524597,13.1102039 C28.7515671,13.1102039 29.9254571,11.8541209 29.9254571,9.79393392 L29.9255912,9.56731195 C29.1545993,9.56731195 28.2038188,9.57447953 27.3475263,9.60385255 L27.3475263,9.60385255 Z" id="Fill-1" fill="#F5AF02"></path>
                            <path d="M2.2315893,9.89558379 C2.34986052,11.8890976 3.72137199,13.0681723 5.60719149,13.0681723 C6.91378348,13.0681723 8.0760243,12.5346057 8.46519059,11.3737312 L10.7251734,11.3737312 C10.28567,13.7290697 7.7887942,14.5285412 5.63958112,14.5285412 C1.73186361,14.5285412 0,12.3713665 0,9.46243425 C0,6.2600509 1.7913147,4.15101176 5.67526579,4.15101176 C8.76672261,4.15101176 11.0318233,5.77265226 11.0318233,9.31212489 L11.0318233,9.89558379 L2.2315893,9.89558379 Z M8.72956567,8.43500409 C8.64452537,6.38042487 7.16497837,5.61159146 5.5837055,5.61159146 C3.87862293,5.61159146 2.51727704,6.47641486 2.2788417,8.43500409 L8.72956567,8.43500409 Z" id="Fill-3" fill="#E53238"></path>
                            <path d="M11.1037652,0 L13.2187101,0 L13.2185071,5.62896549 C14.2550669,4.32052066 15.6832131,3.94060564 17.0889577,3.94060564 C19.4458523,3.94060564 22.0636465,5.62545241 22.0636465,9.2632875 C22.0636465,12.3096338 19.9817286,14.5285412 17.0496367,14.5285412 C15.514965,14.5285412 14.0703054,13.9452974 13.1793891,12.7897793 C13.1793891,13.2513556 13.1550249,13.7165167 13.1073794,14.1566561 L11.0318233,14.1566561 C11.0678958,13.4451489 11.1037652,12.5592779 11.1037652,11.8426087 L11.1037652,0 Z M16.5300032,12.9960476 C18.4959206,12.9960476 19.8411609,11.4970358 19.8411609,9.23482434 C19.8411609,6.97297134 18.4959206,5.4737445 16.5300032,5.4737445 C14.5751173,5.4737445 13.2187101,6.97297134 13.2187101,9.23482434 C13.2187101,11.4970358 14.5751173,12.9960476 16.5300032,12.9960476 L16.5300032,12.9960476 Z" id="Fill-5" fill="#0064D2"></path>
                            <polygon id="Fill-7" fill="#86B817" points="43.1244 4.15101176 36.5378157 17.6418 34.1528182 17.6418 36.046422 13.8957094 31.0896837 4.15101176 33.5818201 4.15101176 37.229311 11.7646721 40.8665106 4.15101176"></polygon>
                        </g>
                    </g>
                    <text id="Text" font-family="MarketSans-Regular, Market Sans" font-size="16" font-weight="normal" fill="#111820">
                        <tspan x="0" y="15">Sign in with</tspan>
                    </text>
                </g>
            </g>
        </g>
    </g>
</svg>